# xmcd CD database file
# Copyright (C) 1993-1998 Ti Kan
#
# Track frame offsets:
#  183
#  20720
#  35333
#  57333
#  72468
#  102458
#  125638
#  150180
#  167005
#  189823
#  207905
#  226583
#  243498
#  267075
#  294485
#  311540
#  330215
#
# Disc length: 4596 seconds
#
# Revision: 1
# Processed by: cddbd v1.4b41PL1 Copyright (c) Steve Scherf et al.
# Submitted via: CDWizzard Release:4.35
#
DISCID=e111f211
DTITLE=Megadeth - Symphony of Destruction (LIVE)
DYEAR=1900
DGENRE=
TTITLE0=Symphony of Destruction
TTITLE1=Skin on my teeth
TTITLE2=Wake up dead
TTITLE3=Liar
TTITLE4=In my darkest hour
TTITLE5=The conjuring
TTITLE6=Hook in  my mouth
TTITLE7=Angry Again
TTITLE8=Hangar
TTITLE9=Foreclosure of a dream
TTITLE10=Countdown of extinction
TTITLE11=Lucretia
TTITLE12=Tornado of souls
TTITLE13=Ashes in your mouth
TTITLE14=Symphony of destruction
TTITLE15=Peace Sells
TTITLE16=Anarchy in the U.K
EXTD=
EXTT0=
EXTT1=
EXTT2=
EXTT3=
EXTT4=
EXTT5=
EXTT6=
EXTT7=
EXTT8=
EXTT9=
EXTT10=
EXTT11=
EXTT12=
EXTT13=
EXTT14=
EXTT15=
EXTT16=
PLAYORDER=
